<?xml version="1.0" encoding="utf-8"?>
<!-- Svg Vector Icons : http://www.sfont.cn -->
<!DOCTYPE svg PUBLIC "-//W3C//DTD SVG 1.1//EN" "http://www.w3.org/Graphics/SVG/1.1/DTD/svg11.dtd">
<svg version="1.1" xmlns="http://www.w3.org/2000/svg" xmlns:xlink="http://www.w3.org/1999/xlink" x="0px" y="0px" viewBox="0 0 1000 1000" enable-background="new 0 0 1000 1000" xml:space="preserve">
<metadata> Svg Vector Icons : http://www.sfont.cn </metadata>
<g><path d="M310.6,989.9c-18.6-28.4-31.1-69.6,20-143c56-80.4,70.4-159.8,70.4-159.8s44,56.2,26.4,144c77.8-85,92.5-220.3,80.7-272.2c175.7,120.6,250.8,237.5,149.6,431c538.3-299.1,133.9-746.6,63.6-797c23.5,50.4,27.9,135.8-19.4,177.2C621.6,71.3,423.1,10,423.1,10c23.5,154.1-85.1,322.6-189.7,448.5c-3.7-61.4-7.6-103.8-40.5-162.6c-7.4,111.7-94.3,202.7-117.8,314.5C43.3,761.8,99,872.7,310.6,989.9L310.6,989.9L310.6,989.9z" style="stroke: 00FF00; fill: #EB4F38"/></g>
</svg>